<svg viewBox="-4.5 -4.5 54.00 54.00" fill="none" xmlns="http://www.w3.org/2000/svg" width="current" height="current"><g id="SVGRepo_bgCarrier" stroke-width="0"></g><g id="SVGRepo_tracerCarrier" stroke-linecap="round" stroke-linejoin="round"></g><g id="SVGRepo_iconCarrier"> <g clip-path="url(#clip0_2_1369)"> <path d="M26.496 18.771C26.371 15.501 23.569 12.693 18.282 10.257L17.5 9.90399L16.718 10.257C11.308 12.75 8.5 15.632 8.5 19V20L10.5 19.999H12.5H22.5H24.5L26.5 20V19L26.496 18.771ZM10.635 18L10.655 17.929L10.717 17.734C11.368 15.846 13.492 14 17.194 12.242L17.5 12.099L17.806 12.242L18.183 12.424C21.776 14.188 23.796 16.039 24.345 17.929L24.364 18H10.635Z" fill="#000000"></path> <path d="M23.5 24.997H11.494V18.999H23.5V24.997Z" stroke="#000000" stroke-width="2" stroke-linecap="round" stroke-linejoin="round"></path> <path d="M18.5 24.75H16.5V22H18.5V24.75Z" fill="#000000"></path> <path d="M31.954 13.189C32.33 14.583 32.5 16.123 32.5 18C32.5 20.346 31.902 22.682 30.717 25L28.437 24.999C29.817 22.646 30.5 20.316 30.5 18C30.5 16.075 30.31 14.587 29.893 13.259C30.812 11.5 31.5 11.5 31.954 13.189Z" fill="#000000"></path> <path d="M31.6 11.04C33.734 11.324 30.31 14.587 29.893 13.259C29.114 13.644 28.565 14.423 28.505 15.336L28.5 15.5H26.5C26.5 13.55 27.74 11.891 29.474 11.265C29.325 10.579 31.857 10.457 31.6 11.04Z" fill="#000000"></path> <path d="M31.6 11.04C33.734 11.324 35.394 13.103 35.495 15.288L35.5 15.5H33.5C33.5 14.457 32.862 13.564 31.954 13.189C31.308 12.716 30.795 12.453 29.474 11.265C29.325 10.579 31.857 10.457 31.6 11.04Z" fill="#000000"></path> <path d="M31.6 11.04C31.408 11.13 30.311 11.561 29.474 11.265C29.325 10.579 28.526 10 27.5 10C26.416 10 25.587 10.646 25.506 11.383L25.5 11.5H23.5C23.5 9.523 25.327 8 27.5 8C28.682 8 29.762 8.451 30.501 9.18C31.239 8.45 31.857 10.457 31.6 11.04Z" fill="#000000"></path> <path d="M33.5 8C35.603 8 37.382 9.426 37.494 11.31L37.5 11.5H35.5C35.5 10.716 34.641 10 33.5 10C32.589 10 31.857 10.457 31.6 11.04C31.512 11.176 30.731 11.185 29.474 11.265C29.325 10.579 29.762 8.451 30.501 9.18C31.239 8.45 32.318 8 33.5 8Z" fill="#000000"></path> <mask id="mask0_2_1369" style="mask-type:alpha" maskUnits="userSpaceOnUse" x="-17" y="-18" width="80" height="81"> <path d="M63 -17.5H-17V62.5H63V-17.5Z" fill="#F2DDBB"></path> </mask> <g mask="url(#mask0_2_1369)"> <path d="M31.556 28C32.675 28.001 33.757 28.411 34.572 29.176C34.962 29.541 35.473 29.76 36.016 29.804L36.222 29.812V31.812C35.103 31.812 34.021 31.401 33.205 30.636C32.767 30.225 32.175 30 31.556 30C30.936 30 30.344 30.225 29.906 30.636C29.09 31.401 28.008 31.812 26.889 31.812C25.85 31.812 24.842 31.458 24.051 30.795L23.872 30.636C23.433 30.225 22.842 30 22.222 30C21.602 30 21.011 30.225 20.573 30.636C19.757 31.401 18.674 31.812 17.555 31.812C16.436 31.812 15.354 31.401 14.538 30.636C14.1 30.225 13.509 30 12.889 30C12.269 30 11.678 30.225 11.239 30.636C10.481 31.346 9.49399 31.752 8.46099 31.806L8.22198 31.812V29.812C8.77298 29.812 9.30099 29.634 9.71999 29.306L9.87198 29.176C10.688 28.411 11.77 28.001 12.889 28C14.008 28.001 15.09 28.411 15.906 29.176C16.344 29.587 16.935 29.812 17.555 29.812C18.175 29.812 18.766 29.588 19.205 29.176C20.021 28.412 21.103 28.001 22.222 28C23.341 28.001 24.423 28.411 25.239 29.176C25.678 29.587 26.269 29.812 26.889 29.812C27.509 29.812 28.1 29.587 28.538 29.176C29.354 28.411 30.436 28.001 31.556 28Z" fill="#000000"></path> <path d="M59.209 28C60.328 28.001 61.41 28.411 62.225 29.176C62.615 29.541 63.126 29.76 63.669 29.804L63.875 29.812V31.812C62.756 31.812 61.674 31.401 60.858 30.636C60.42 30.225 59.828 30 59.209 30C58.589 30 57.997 30.225 57.559 30.636C56.743 31.401 55.661 31.812 54.542 31.812C53.503 31.812 52.495 31.458 51.704 30.795L51.525 30.636C51.086 30.225 50.495 30 49.875 30C49.255 30 48.664 30.225 48.226 30.636C47.41 31.401 46.327 31.812 45.208 31.812C44.089 31.812 43.007 31.401 42.191 30.636C41.753 30.225 41.162 30 40.542 30C39.922 30 39.331 30.225 38.892 30.636C38.134 31.346 37.147 31.752 36.114 31.806L35.875 31.812V29.812C36.426 29.812 36.954 29.634 37.373 29.306L37.525 29.176C38.341 28.411 39.423 28.001 40.542 28C41.661 28.001 42.743 28.411 43.559 29.176C43.997 29.587 44.588 29.812 45.208 29.812C45.828 29.812 46.419 29.588 46.858 29.176C47.674 28.412 48.756 28.001 49.875 28C50.994 28.001 52.076 28.411 52.892 29.176C53.331 29.587 53.922 29.812 54.542 29.812C55.162 29.812 55.753 29.587 56.191 29.176C57.007 28.411 58.089 28.001 59.209 28Z" fill="#000000"></path> <path d="M3.709 28C4.828 28.001 5.91 28.411 6.725 29.176C7.115 29.541 7.626 29.76 8.169 29.804L8.375 29.812V31.812C7.256 31.812 6.174 31.401 5.358 30.636C4.92 30.225 4.328 30 3.709 30C3.089 30 2.497 30.225 2.059 30.636C1.243 31.401 0.160999 31.812 -0.958 31.812C-1.997 31.812 -3.005 31.458 -3.796 30.795L-3.975 30.636C-4.414 30.225 -5.005 30 -5.625 30C-6.245 30 -6.836 30.225 -7.274 30.636C-8.09 31.401 -9.173 31.812 -10.292 31.812C-11.411 31.812 -12.493 31.401 -13.309 30.636C-13.747 30.225 -14.338 30 -14.958 30C-15.578 30 -16.169 30.225 -16.608 30.636C-17.366 31.346 -18.353 31.752 -19.386 31.806L-19.625 31.812V29.812C-19.074 29.812 -18.546 29.634 -18.127 29.306L-17.975 29.176C-17.159 28.411 -16.077 28.001 -14.958 28C-13.839 28.001 -12.757 28.411 -11.941 29.176C-11.503 29.587 -10.912 29.812 -10.292 29.812C-9.672 29.812 -9.081 29.588 -8.642 29.176C-7.826 28.412 -6.744 28.001 -5.625 28C-4.506 28.001 -3.424 28.411 -2.608 29.176C-2.169 29.587 -1.578 29.812 -0.958 29.812C-0.337999 29.812 0.253 29.587 0.691 29.176C1.507 28.411 2.589 28.001 3.709 28Z" fill="#000000"></path> </g> <mask id="mask1_2_1369" style="mask-type:alpha" maskUnits="userSpaceOnUse" x="-17" y="-18" width="80" height="81"> <path d="M63 -17.5H-17V62.5H63V-17.5Z" fill="#F2DDBB"></path> </mask> <g mask="url(#mask1_2_1369)"> <path d="M31.556 33C32.675 33.001 33.757 33.411 34.572 34.176C34.962 34.541 35.473 34.76 36.016 34.804L36.222 34.812V36.812C35.103 36.812 34.021 36.401 33.205 35.636C32.767 35.225 32.175 35 31.556 35C30.936 35 30.344 35.225 29.906 35.636C29.09 36.401 28.008 36.812 26.889 36.812C25.85 36.812 24.842 36.458 24.051 35.795L23.872 35.636C23.433 35.225 22.842 35 22.222 35C21.602 35 21.011 35.225 20.573 35.636C19.757 36.401 18.674 36.812 17.555 36.812C16.436 36.812 15.354 36.401 14.538 35.636C14.1 35.225 13.509 35 12.889 35C12.269 35 11.678 35.225 11.239 35.636C10.481 36.346 9.49399 36.752 8.46099 36.806L8.22198 36.812V34.812C8.77298 34.812 9.30099 34.634 9.71999 34.306L9.87198 34.176C10.688 33.411 11.77 33.001 12.889 33C14.008 33.001 15.09 33.411 15.906 34.176C16.344 34.587 16.935 34.812 17.555 34.812C18.175 34.812 18.766 34.588 19.205 34.176C20.021 33.412 21.103 33.001 22.222 33C23.341 33.001 24.423 33.411 25.239 34.176C25.678 34.587 26.269 34.812 26.889 34.812C27.509 34.812 28.1 34.587 28.538 34.176C29.354 33.411 30.436 33.001 31.556 33Z" fill="#000000"></path> <path d="M59.209 33C60.328 33.001 61.41 33.411 62.225 34.176C62.615 34.541 63.126 34.76 63.669 34.804L63.875 34.812V36.812C62.756 36.812 61.674 36.401 60.858 35.636C60.42 35.225 59.828 35 59.209 35C58.589 35 57.997 35.225 57.559 35.636C56.743 36.401 55.661 36.812 54.542 36.812C53.503 36.812 52.495 36.458 51.704 35.795L51.525 35.636C51.086 35.225 50.495 35 49.875 35C49.255 35 48.664 35.225 48.226 35.636C47.41 36.401 46.327 36.812 45.208 36.812C44.089 36.812 43.007 36.401 42.191 35.636C41.753 35.225 41.162 35 40.542 35C39.922 35 39.331 35.225 38.892 35.636C38.134 36.346 37.147 36.752 36.114 36.806L35.875 36.812V34.812C36.426 34.812 36.954 34.634 37.373 34.306L37.525 34.176C38.341 33.411 39.423 33.001 40.542 33C41.661 33.001 42.743 33.411 43.559 34.176C43.997 34.587 44.588 34.812 45.208 34.812C45.828 34.812 46.419 34.588 46.858 34.176C47.674 33.412 48.756 33.001 49.875 33C50.994 33.001 52.076 33.411 52.892 34.176C53.331 34.587 53.922 34.812 54.542 34.812C55.162 34.812 55.753 34.587 56.191 34.176C57.007 33.411 58.089 33.001 59.209 33Z" fill="#000000"></path> <path d="M3.709 33C4.828 33.001 5.91 33.411 6.725 34.176C7.115 34.541 7.626 34.76 8.169 34.804L8.375 34.812V36.812C7.256 36.812 6.174 36.401 5.358 35.636C4.92 35.225 4.328 35 3.709 35C3.089 35 2.497 35.225 2.059 35.636C1.243 36.401 0.160999 36.812 -0.958 36.812C-1.997 36.812 -3.005 36.458 -3.796 35.795L-3.975 35.636C-4.414 35.225 -5.005 35 -5.625 35C-6.245 35 -6.836 35.225 -7.274 35.636C-8.09 36.401 -9.173 36.812 -10.292 36.812C-11.411 36.812 -12.493 36.401 -13.309 35.636C-13.747 35.225 -14.338 35 -14.958 35C-15.578 35 -16.169 35.225 -16.608 35.636C-17.366 36.346 -18.353 36.752 -19.386 36.806L-19.625 36.812V34.812C-19.074 34.812 -18.546 34.634 -18.127 34.306L-17.975 34.176C-17.159 33.411 -16.077 33.001 -14.958 33C-13.839 33.001 -12.757 33.411 -11.941 34.176C-11.503 34.587 -10.912 34.812 -10.292 34.812C-9.672 34.812 -9.081 34.588 -8.642 34.176C-7.826 33.412 -6.744 33.001 -5.625 33C-4.506 33.001 -3.424 33.411 -2.608 34.176C-2.169 34.587 -1.578 34.812 -0.958 34.812C-0.337999 34.812 0.253 34.587 0.691 34.176C1.507 33.411 2.589 33.001 3.709 33Z" fill="#000000"></path> </g> </g> <defs> <clipPath id="clip0_2_1369"> <rect width="45" height="45" fill="white"></rect> </clipPath> </defs> </g></svg>