<svg fill="#000000" version="1.1" id="Layer_1" xmlns="http://www.w3.org/2000/svg" xmlns:xlink="http://www.w3.org/1999/xlink" viewBox="-51.2 -51.2 614.40 614.40" xml:space="preserve" width="current" height="current"><g id="SVGRepo_bgCarrier" stroke-width="0"></g><g id="SVGRepo_tracerCarrier" stroke-linecap="round" stroke-linejoin="round"></g><g id="SVGRepo_iconCarrier"> <g> <g> <path d="M457.221,375.118c30.205,0,54.779-24.574,54.779-54.779V260c0-22.058-17.944-40.003-40-40.003 c-22.058,0-40.004,17.945-40.004,40.003v35.114h-11.122V125.98c0-38.353-31.203-69.554-69.556-69.554 s-69.555,31.202-69.555,69.554v90.143h-12.097v-57.871c0-22.201-18.062-40.262-40.262-40.262 c-22.199,0-40.259,18.062-40.259,40.262v83.226c0,30.419,24.747,55.166,55.166,55.166h37.452v194.458H72.449 c-5.771,0-10.449,4.678-10.449,10.449c0,5.771,4.678,10.449,10.449,10.449h219.762h118.215h91.125 c5.771,0,10.449-4.678,10.449-10.449c0-5.771-4.678-10.449-10.449-10.449h-80.676V375.118H457.221z M410.424,354.219 c-5.771,0-10.449,4.678-10.449,10.449V491.1H302.66V286.194c0-5.771-4.678-10.449-10.449-10.449H244.31 c-18.895,0-34.268-15.372-34.268-34.268v-83.226c0-10.678,8.685-19.364,19.361-19.364c10.678,0,19.364,8.686,19.364,19.364v68.32 c0,5.771,4.678,10.449,10.449,10.449h32.995c5.771,0,10.449-4.678,10.449-10.449V125.98c0-26.83,21.828-48.657,48.658-48.657 c26.831,0,48.659,21.828,48.659,48.657v179.582c0,5.771,4.678,10.449,10.449,10.449h32.02c5.771,0,10.449-4.678,10.449-10.449 v-45.563c0-10.535,8.571-19.105,19.106-19.105c10.533,0,19.102,8.57,19.102,19.105v60.339c0,18.682-15.199,33.881-33.881,33.881 H410.424z"></path> </g> </g> <g> <g> <path d="M77.325,38.166c-27.296,0-49.502,22.207-49.502,49.502c0,27.295,22.206,49.502,49.502,49.502 c27.296,0,49.502-22.206,49.502-49.502C126.827,60.372,104.621,38.166,77.325,38.166z M77.325,116.272 c-15.773,0-28.604-12.831-28.604-28.604c0-15.773,12.831-28.604,28.604-28.604c15.773,0,28.604,12.831,28.604,28.604 C105.929,103.44,93.098,116.272,77.325,116.272z"></path> </g> </g> <g> <g> <path d="M77.325,0.001c-5.771,0-10.449,4.678-10.449,10.449v15.44c0,5.771,4.678,10.449,10.449,10.449 c5.771,0,10.449-4.678,10.449-10.449V10.45C87.774,4.679,83.096,0.001,77.325,0.001z"></path> </g> </g> <g> <g> <path d="M77.325,138.996c-5.771,0-10.449,4.678-10.449,10.449v15.441c0,5.771,4.678,10.449,10.449,10.449 c5.771,0,10.449-4.678,10.449-10.449v-15.441C87.774,143.674,83.096,138.996,77.325,138.996z"></path> </g> </g> <g> <g> <path d="M153.246,43.834c-2.886-4.999-9.276-6.71-14.273-3.825l-13.372,7.72c-4.998,2.886-6.71,9.276-3.825,14.273 c1.936,3.353,5.448,5.227,9.059,5.227c1.772,0,3.569-0.451,5.214-1.401l13.372-7.72C154.419,55.222,156.131,48.832,153.246,43.834 z"></path> </g> </g> <g> <g> <path d="M32.872,113.333c-2.886-4.998-9.277-6.711-14.273-3.824l-13.37,7.72c-4.998,2.885-6.71,9.276-3.824,14.273 c1.935,3.352,5.447,5.226,9.058,5.226c1.772,0,3.569-0.451,5.215-1.401l13.37-7.72C34.046,124.722,35.758,118.331,32.872,113.333z "></path> </g> </g> <g> <g> <path d="M29.047,47.729l-13.373-7.72c-4.998-2.886-11.388-1.172-14.273,3.825c-2.885,4.999-1.172,11.389,3.825,14.274 l13.373,7.719c1.646,0.95,3.442,1.401,5.214,1.401c3.611,0,7.124-1.873,9.059-5.227C35.757,57.004,34.045,50.614,29.047,47.729z"></path> </g> </g> <g> <g> <path d="M149.422,117.23l-13.371-7.721c-4.997-2.885-11.387-1.173-14.273,3.824c-2.886,4.998-1.173,11.387,3.824,14.273 l13.372,7.721c1.646,0.95,3.442,1.401,5.215,1.401c3.611,0,7.123-1.873,9.058-5.226 C156.132,126.505,154.42,120.116,149.422,117.23z"></path> </g> </g> <g> <g> <path d="M41.007,491.101H10.451c-5.771,0-10.449,4.678-10.449,10.449c0,5.771,4.678,10.449,10.449,10.449h30.556 c5.771,0,10.449-4.678,10.449-10.449C51.456,495.779,46.778,491.101,41.007,491.101z"></path> </g> </g> <g> <g> <path d="M324.964,300.888c-5.771,0-10.449,4.678-10.449,10.449v149.356c0,5.771,4.678,10.449,10.449,10.449 c5.771,0,10.449-4.678,10.449-10.449V311.336C335.413,305.566,330.735,300.888,324.964,300.888z"></path> </g> </g> <g> <g> <path d="M324.964,265.537c-5.771,0-10.449,4.678-10.449,10.449v3.861c0,5.771,4.678,10.449,10.449,10.449 c5.771,0,10.449-4.678,10.449-10.449v-3.861C335.413,270.215,330.735,265.537,324.964,265.537z"></path> </g> </g> </g></svg>