<svg viewBox="-2.4 -2.4 28.80 28.80" fill="none" xmlns="http://www.w3.org/2000/svg"><g id="SVGRepo_bgCarrier" stroke-width="0" width="current" height="current"></g><g id="SVGRepo_tracerCarrier" stroke-linecap="round" stroke-linejoin="round"></g><g id="SVGRepo_iconCarrier"> <path fill-rule="evenodd" clip-rule="evenodd" d="M14.4527 8.48679L12.1842 3.93896L11.4471 4.74309C7.30945 9.25693 6 11.9609 6 14.2499C6 17.422 8.73452 19.909 12 19.909C15.2655 19.909 18 17.422 18 14.2499C18 13.3179 17.6746 12.3124 17.2381 11.3658C16.796 10.4069 16.2091 9.44335 15.62 8.57788L15.1065 7.82342L14.4527 8.48679ZM14.0473 11.0348L14.8818 10.1883C15.256 10.7846 15.6008 11.397 15.876 11.9938C16.2765 12.8625 16.5 13.6357 16.5 14.2499C16.5 15.0941 16.2233 15.8901 15.7438 16.5554C15.7479 16.4935 15.75 16.4309 15.75 16.3675C15.75 15.8056 15.5231 15.2413 15.2632 14.7624C14.9946 14.2679 14.6434 13.7798 14.2995 13.3507L13.8135 12.7443L13.4772 13.034L12.1744 10.8159L11.4903 11.4497C9.13721 13.6298 8.25 15.0508 8.25 16.3675C8.25 16.4309 8.25209 16.4935 8.25622 16.5554C7.77669 15.8901 7.5 15.0941 7.5 14.2499C7.5 12.6786 8.327 10.5308 11.8206 6.5705L14.0473 11.0348ZM13.0943 15.344L13.5948 14.9127C13.7259 15.1036 13.8447 15.2936 13.9449 15.4781C14.1632 15.8802 14.25 16.1791 14.25 16.3675C14.25 17.1171 13.4131 17.9999 12 17.9999C10.5869 17.9999 9.75 17.1171 9.75 16.3675C9.75 15.8235 10.0697 14.9464 11.8334 13.1972L13.0943 15.344Z" fill="#000000"></path> </g></svg>