<svg fill="#000000" height="200px" width="200px" version="1.1" id="Capa_1" xmlns="http://www.w3.org/2000/svg" xmlns:xlink="http://www.w3.org/1999/xlink" viewBox="-45.23 -45.23 542.79 542.79" xml:space="preserve"><g id="SVGRepo_bgCarrier" stroke-width="0" width="current" height="current"></g><g id="SVGRepo_tracerCarrier" stroke-linecap="round" stroke-linejoin="round"></g><g id="SVGRepo_iconCarrier"> <path d="M316.412,98.786l-7.387-0.646c0,0-0.001,0-0.001,0l-8.301-0.727l6.276-71.748c0.068,0.002,0.138,0.009,0.206,0.009 c4.104,0,7.597-3.139,7.961-7.304c0.385-4.401-2.871-8.281-7.272-8.667l-7.469-0.653c-0.001,0-0.002,0-0.002,0l-95.635-8.367 c0,0-0.002,0-0.002,0l-7.469-0.653c-4.398-0.383-8.282,2.871-8.667,7.272c-0.37,4.233,2.631,7.975,6.777,8.598l-6.278,71.751 l-15.689-1.373c-4.398-0.388-8.282,2.87-8.667,7.272c-0.368,4.205,2.59,7.925,6.691,8.586l-6.313,71.909 c-4.148-0.049-7.691,3.097-8.059,7.294c-0.367,4.195,2.577,7.91,6.665,8.583L157.43,262.2c-4.137-0.038-7.666,3.107-8.032,7.296 c-0.366,4.187,2.564,7.895,6.639,8.579l-6.272,71.441c-4.12-0.023-7.64,3.117-8.006,7.297c-0.365,4.178,2.552,7.879,6.612,8.575 l-6.229,70.946h-5.524c-4.418,0-8,3.582-8,8s3.582,8,8,8h45.247c0.004,0,0.007,0,0.011,0c0.003,0,0.007,0,0.01,0h64.557 c0.004,0,0.007,0,0.011,0c0.003,0,0.007,0,0.01,0h32.268c0.004,0,0.007,0,0.011,0c0.003,0,0.007,0,0.01,0h18.031 c4.418,0,8-3.582,8-8s-3.582-8-8-8h-9.319l5.102-58.322c0.041,0,0.082,0.005,0.123,0.005c4.104,0,7.597-3.139,7.961-7.303 c0.368-4.206-2.591-7.927-6.694-8.586l6.25-71.433c0.041,0,0.083,0.005,0.123,0.005c4.104,0,7.597-3.139,7.961-7.303 c0.368-4.206-2.591-7.927-6.695-8.587l6.323-72.27c0.041,0.001,0.082,0.006,0.123,0.006c4.104,0,7.597-3.139,7.961-7.304 c0.368-4.205-2.591-7.926-6.694-8.586l6.291-71.905c0.041,0,0.082,0.005,0.123,0.005c4.104,0,7.597-3.139,7.961-7.303 C324.069,103.051,320.813,99.171,316.412,98.786z M258.839,302.686c-4.407-0.384-8.282,2.871-8.667,7.272l-4.194,47.942 l-16.271-1.423l4.194-47.942c0.386-4.401-2.87-8.282-7.272-8.667c-4.402-0.384-8.282,2.871-8.667,7.272l-4.194,47.942l-15.938-1.395 l4.194-47.942c0.385-4.401-2.871-8.282-7.272-8.667c-4.404-0.384-8.282,2.871-8.667,7.272l-4.194,47.942l-16.183-1.416l6.266-71.376 l112.293,9.825l-6.245,71.378l-16.104-1.409l4.194-47.942C266.496,306.951,263.24,303.071,258.839,302.686z M269.556,271.977 l4.248-48.555c0.385-4.401-2.871-8.282-7.272-8.667c-4.406-0.385-8.282,2.871-8.667,7.272l-4.248,48.555l-16.271-1.423l4.248-48.556 c0.385-4.401-2.871-8.282-7.272-8.667c-4.405-0.384-8.281,2.871-8.667,7.272l-4.248,48.556l-15.938-1.395l4.248-48.556 c0.385-4.401-2.871-8.282-7.272-8.667c-4.401-0.387-8.282,2.871-8.667,7.272l-4.248,48.556l-16.156-1.414l6.34-72.213l88.192,7.716 h0.001h0.001l24.074,2.106l-6.318,72.215L269.556,271.977z M277.268,183.824l4.194-47.942c0.385-4.401-2.871-8.282-7.272-8.667 c-4.407-0.385-8.282,2.871-8.667,7.272l-4.194,47.942l-16.27-1.423l4.194-47.942c0.385-4.401-2.871-8.282-7.272-8.666 c-4.407-0.385-8.281,2.871-8.667,7.272l-4.194,47.942l-15.939-1.395l4.194-47.942c0.385-4.401-2.871-8.282-7.272-8.666 c-4.4-0.386-8.282,2.87-8.667,7.272l-4.194,47.942l-16.129-1.411l6.308-71.849l61.094,5.345l10.965,0.959l0.001,0 c0.001,0,0.001,0,0.002,0l40.178,3.515l-6.286,71.851L277.268,183.824z M234.147,35.124c-4.408-0.386-8.282,2.871-8.667,7.272 l-4.089,46.738l-16.188-1.417l6.159-70.397l79.695,6.972l-6.158,70.398l-15.939-1.395l4.09-46.738 c0.385-4.401-2.871-8.281-7.272-8.667c-4.405-0.386-8.282,2.871-8.667,7.272l-4.09,46.738l-15.69-1.373l4.089-46.738 C241.805,39.389,238.549,35.509,234.147,35.124z M255.177,436.333l3.288-37.581c0.385-4.401-2.871-8.282-7.272-8.667 c-4.409-0.383-8.282,2.871-8.667,7.272l-3.41,38.976H222.55l3.701-40.366c0.403-4.399-2.836-8.293-7.236-8.697 c-4.407-0.406-8.294,2.836-8.697,7.236l-3.835,41.827h-15.885l3.779-43.188c0.385-4.401-2.871-8.281-7.272-8.667 c-4.399-0.384-8.282,2.871-8.667,7.272l-3.901,44.583h-16.333l6.103-69.518l24.157,2.113h0h0l88.162,7.713l-5.222,59.691H255.177z"></path> </g></svg>