<svg fill="#000000" height="current" width="current" version="1.1" id="Capa_1" xmlns="http://www.w3.org/2000/svg" xmlns:xlink="http://www.w3.org/1999/xlink" viewBox="-22.29 -22.29 267.50 267.50" xml:space="preserve"><g id="SVGRepo_bgCarrier" stroke-width="0"></g><g id="SVGRepo_tracerCarrier" stroke-linecap="round" stroke-linejoin="round"></g><g id="SVGRepo_iconCarrier"> <path d="M96.127,0h-0.143c-6.672,0-12.1,5.428-12.1,12.1v205.82c0,2.761,2.239,5,5,5h14.342c2.761,0,5-2.239,5-5V12.1 C108.227,5.428,102.799,0,96.127,0z M103.227,157.767c0,3.961-3.211,7.171-7.171,7.171c-3.961,0-7.171-3.211-7.171-7.171V124.87 c0-3.961,3.211-7.171,7.171-7.171c3.961,0,7.171,3.211,7.171,7.171V157.767z M127.931,0h-0.144c-6.672,0-12.1,5.428-12.1,12.1 v205.82c0,2.761,2.239,5,5,5h14.343c2.761,0,5-2.239,5-5V12.1C140.031,5.428,134.603,0,127.931,0z M135.03,157.767 c0,3.961-3.211,7.171-7.171,7.171c-3.961,0-7.171-3.211-7.171-7.171V124.87c0-3.961,3.211-7.171,7.171-7.171 c3.961,0,7.171,3.211,7.171,7.171V157.767z M66.567,195.575c-1.539-2.294-4.646-2.904-6.938-1.366l-0.273,0.183V46.961h0.373 c2.761,0,5-2.239,5-5V10.768c0-5.69-4.629-10.32-10.319-10.32h-0.107c-5.69,0-10.32,4.629-10.32,10.32v26.838 c-5.846,1.118-15.697,4.132-21.337,12.122c-3.409,4.83-3.946,10.604-1.438,15.447c2.274,4.388,6.658,7.115,11.443,7.115c0,0,0,0,0,0 c4.265,0,8.431-2.168,11.729-6.104c2.076-2.477,3.698-4.95,4.976-7.322v142.241l-4.311,2.893c-2.293,1.539-2.904,4.645-1.366,6.938 c0.965,1.438,2.546,2.214,4.156,2.214c0.51,0,1.023-0.084,1.521-0.244v5.015c0,2.761,2.239,5,5,5s5-2.239,5-5v-11.484l5.846-3.923 C67.494,200.975,68.105,197.868,66.567,195.575z M36.714,59.763c-1.365,1.629-2.808,2.526-4.063,2.526 c-1.236,0-2.135-0.886-2.565-1.715c-0.769-1.483-0.503-3.335,0.729-5.08c2.938-4.164,8.105-6.323,12.225-7.427 C42.116,51.288,40.296,55.488,36.714,59.763z M200.275,49.728c-5.641-7.992-15.496-11.006-21.342-12.123V10.768 c0-5.69-4.629-10.32-10.319-10.32h-0.107c-5.69,0-10.32,4.629-10.32,10.32v31.193c0,2.761,2.239,5,5,5h0.374v147.432l-0.274-0.184 c-2.293-1.539-5.399-0.927-6.938,1.366s-0.927,5.399,1.366,6.938l5.846,3.923v11.484c0,2.761,2.239,5,5,5s5-2.239,5-5v-5.015 c0.498,0.16,1.01,0.244,1.52,0.244c1.61,0,3.191-0.777,4.156-2.214c1.539-2.293,0.927-5.399-1.366-6.938l-4.311-2.893V58.855 c1.278,2.375,2.902,4.85,4.98,7.33c3.297,3.936,7.462,6.104,11.728,6.104c0,0,0,0,0.001,0c4.784,0,9.168-2.726,11.442-7.113 C204.222,60.334,203.684,54.559,200.275,49.728z M192.833,60.576c-0.43,0.829-1.328,1.714-2.563,1.714c0,0,0,0,0,0 c-1.256,0-2.699-0.897-4.064-2.526c-3.607-4.305-5.428-8.494-6.346-11.701c4.125,1.104,9.302,3.263,12.246,7.433 C193.337,57.24,193.602,59.092,192.833,60.576z"></path> </g></svg>