<svg viewBox="-51.2 -51.2 614.40 614.40" id="Layer_1" version="1.1" xml:space="preserve" xmlns="http://www.w3.org/2000/svg" xmlns:xlink="http://www.w3.org/1999/xlink" fill="#000000"><g id="SVGRepo_bgCarrier" stroke-width="0" width="current" height="current"></g><g id="SVGRepo_tracerCarrier" stroke-linecap="round" stroke-linejoin="round"></g><g id="SVGRepo_iconCarrier"> <style type="text/css"> .st0{fill:#333333;} </style> <path class="st0" d="M477.6,58.4c-8.9,49.7-27.9,101-56.5,150.5l-10.9,1.4c-45.2,5.7-93,30.8-131,68.8c-38,38-63.1,85.8-68.8,131 l-1.4,10.9c-49.6,28.5-100.9,47.6-150.5,56.5c-14.2,2.5-26.5-9.8-24-24c8.9-49.7,28-101,56.5-150.5v0l10.9-1.4 c45.2-5.7,93-30.8,131-68.8c38-38,63.1-85.8,68.8-131l1.4-10.9c49.6-28.5,100.9-47.5,150.5-56.5c4.5-0.8,8.8-0.1,12.5,1.6L161.1,341 c-10.1-0.4-26.4,8.3-40.9,22.9C101.3,382.7,100,412,100,412s29.3-1.3,48.1-20.1c14.6-14.6,23.3-30.8,22.9-41L475.9,46 C477.7,49.7,478.4,54,477.6,58.4z"></path> <g> <path class="st0" d="M222.9,222.9c-37.4,37.4-82.1,59.7-122.9,64.8c22.6-36.4,50.4-71.7,83.2-104.5s68.1-60.6,104.5-83.2 C282.6,140.8,260.3,185.5,222.9,222.9z"></path> <path class="st0" d="M328.8,328.8c-32.8,32.8-68.1,60.6-104.5,83.2c5.1-40.7,27.5-85.5,64.8-122.9s82.2-59.7,122.9-64.8 C389.3,260.7,361.5,296,328.8,328.8z"></path> </g> </g></svg>